<svg xmlns="http://www.w3.org/2000/svg" width="268.158" height="183.913" viewBox="0 0 268.158 183.913">
  <path id="free-code-camp" d="M37.359,104.118c-19.637,32.807-17.433,78.067.479,108.719,10.632,18.3,23.8,25.1,23.8,31.849a6.389,6.389,0,0,1-6.13,6.226C46.171,250.913,8,214.753,8,156.178,8,102.777,45.357,67.1,54.5,67.1c2.874,0,7.136,2.3,7.136,5.316C61.641,78.495,48.087,86.11,37.359,104.118Zm93.776,102.4c2.155.862,5.891,2.49,5.891-.575,0-1.293-1.054-1.389-2.059-1.724a18.341,18.341,0,0,1-9.148-7.28c-3.927-5.8-4.837-11.59-4.837-18.487,0-15.374,21.169-18.152,21.169-33.526,0-5.891-3.688-7.615-3.688-9.244,0-1.054.335-1.054,1.389-1.054,3.832,0,9.148,6.37,10.776,9.483a9.329,9.329,0,0,1,1.149,5.316c0,3.353-.335,6.8-.335,10.2,0,12.931,15.278,9.483,15.278,3.257,0-2.874-1.724-5.556-1.724-8.334,0-.335,0-.575.335-.575,1.628,0,4.5,3.688,5.316,4.837a28.5,28.5,0,0,1,4.071,15.039c0,15.518-14.129,23.468-14.129,26.821,0,.479,1.389,3.688,5.8.91,14.224-7.232,25.432-22.8,25.432-43.009,0-16.092-4.167-27.635-15.374-39.56-1.868-1.964-7.855-8.094-10.776-8.094-3.927,0,3.448,8.908,3.448,14.943a5.58,5.58,0,0,1-5.891,5.891c-5.556,0-6.945-12.165-7.615-15.949-2.778-16.188-6.13-27.874-22.223-35.489-4.981-2.395-17.481-5.651-17.481-1.054,0,1.149,1.293,1.964,2.2,2.443,4.406,2.682,9.387,10.249,9.387,18.3,0,22.079-27.635,42.242-27.635,65.232-.1,19.3,13.458,34.771,31.275,41.285ZM229.461,67c-2.874,0-6.9,3.113-6.9,6.035,0,4.167,5.8,9.387,8.429,12.165,39.081,40.758,37.645,102.637,8.429,139.371-3.353,4.263-16.907,16.907-16.907,20.834,0,2.443,3.927,5.46,6.322,5.46,12.165,0,47.319-38.7,47.319-88.939C276.206,104.788,239.711,67,229.461,67ZM209.2,221.745H84.151c-4.5,0-7.424,3.592-7.424,7.855a7.461,7.461,0,0,0,7.424,7.424H209.2c4.5,0,5.7-3.592,5.7-7.855C214.9,225.1,213.225,221.745,209.2,221.745Z" transform="translate(-8 -67)"/>
</svg>
